<?xml version="1.0" encoding="iso-8859-1"?>
<!-- Generator: Adobe Illustrator 19.0.0, SVG Export Plug-In . SVG Version: 6.00 Build 0)  -->
<svg version="1.1" id="Capa_1" xmlns="http://www.w3.org/2000/svg" xmlns:xlink="http://www.w3.org/1999/xlink" x="0px" y="0px"
	 viewBox="0 0 488.49 488.49" style="enable-background:new 0 0 488.49 488.49;" xml:space="preserve">
<path style="fill:#D4E1F4;" d="M312.163,219.429l-6.269,6.269l-61.649,61.649l-55.38-55.38l-24.033-24.033
	c-7.837-7.837-14.106-16.718-19.331-26.122l0,0c-22.988-42.841-16.718-97.176,19.331-133.224
	c21.943-21.943,50.678-32.914,79.412-32.914s57.469,10.971,79.935,32.914c21.943,21.943,32.914,50.678,32.914,79.412
	s-10.971,57.992-33.437,79.935L312.163,219.429z M283.429,124.865c0-21.42-17.763-39.184-39.184-39.184
	s-39.184,17.763-39.184,39.184s17.763,39.184,39.184,39.184S283.429,146.286,283.429,124.865z"/>
<polygon style="fill:#00BBD3;" points="305.894,225.698 305.894,472.816 188.865,420.571 188.865,231.967 244.245,287.347 "/>
<g>
	<polygon style="fill:#4DCFE0;" points="427.102,193.306 427.102,446.694 305.894,472.816 305.894,225.698 312.163,219.429 	"/>
	<path style="fill:#4DCFE0;" d="M145.502,181.812c5.224,9.404,11.494,18.286,19.331,26.122l24.033,24.033v188.604L61.388,459.755
		V206.367l83.592-24.555H145.502L145.502,181.812z"/>
</g>
<g>
	<path style="fill:#3A2C51;" d="M437.029,181.29c-3.657-3.135-8.359-4.18-13.061-3.135l-68.963,15.673
		C366.498,173.976,373.29,151.51,373.29,128c0-33.959-13.061-66.351-37.616-90.384C310.596,13.061,278.204,0,244.245,0
		s-66.351,13.061-90.384,37.616c-35.527,35.527-46.498,87.771-29.78,134.269l-66.873,19.853c-6.792,2.09-11.494,7.837-11.494,15.151
		v253.388c0,5.224,2.612,9.404,6.269,12.539c2.612,2.09,5.747,3.135,9.404,3.135c1.567,0,3.135,0,4.702-0.522L187.82,437.29
		l111.804,49.633c2.09,1.045,4.18,1.567,6.269,1.567c1.045,0,2.09,0,3.135-0.522l0,0l121.208-26.122
		c7.314-1.567,12.539-7.837,12.539-15.151V193.306C442.776,188.604,440.686,183.902,437.029,181.29z M175.804,59.559
		c18.286-18.286,42.318-28.212,68.441-28.212c25.6,0,50.155,9.927,68.963,28.212C331.494,77.845,341.42,101.878,341.42,128
		s-10.449,50.678-28.735,68.963l-8.359,8.359l0,0l0,0l-60.082,60.082l-68.441-68.441c-6.269-6.269-11.494-13.584-16.718-22.465
		C138.71,136.359,145.502,89.861,175.804,59.559z M77.061,438.335V217.861l61.127-17.763c4.702,6.792,9.927,13.061,15.151,18.808
		l19.331,19.331v170.318L77.061,438.335z M204.539,410.645V269.584l28.735,28.735c3.135,3.135,7.314,4.702,10.971,4.702
		c3.657,0,7.837-1.567,10.971-4.702l35.004-35.004v184.947L204.539,410.645z M411.429,434.155l-89.861,19.331V233.535l89.861-20.376
		V434.155z"/>
	<path style="fill:#3A2C51;" d="M244.245,179.722c-30.302,0-54.857-24.555-54.857-54.857s24.555-54.857,54.857-54.857
		s54.857,24.555,54.857,54.857S274.547,179.722,244.245,179.722z M244.245,101.355c-13.061,0-23.51,10.449-23.51,23.51
		s10.449,23.51,23.51,23.51c13.061,0,23.51-10.449,23.51-23.51S257.306,101.355,244.245,101.355z"/>
</g>
<g>
</g>
<g>
</g>
<g>
</g>
<g>
</g>
<g>
</g>
<g>
</g>
<g>
</g>
<g>
</g>
<g>
</g>
<g>
</g>
<g>
</g>
<g>
</g>
<g>
</g>
<g>
</g>
<g>
</g>
</svg>
